<?xml version="1.0" encoding="utf-8"?>
<!-- Generator: Adobe Illustrator 18.1.1, SVG Export Plug-In . SVG Version: 6.00 Build 0)  -->
<svg version="1.1" id="Layer_1" xmlns="http://www.w3.org/2000/svg" xmlns:xlink="http://www.w3.org/1999/xlink" x="0px" y="0px"
	 viewBox="-390 605 218 192" enable-background="new -390 605 218 192" xml:space="preserve">
<g>
	<polygon points="-304.1,726 -306.5,733.8 -299.2,733.8 -301.6,726 	"/>
	<path d="M-297,692c0.4-0.4,0.4-1.1,0.4-2.9s0-2.4-0.4-2.9c-0.2-0.2-0.9-0.4-2.2-0.4h-7.5v6.7h7.5C-297.9,692.5-297.2,692.3-297,692
		z"/>
	<path d="M-258.6,656.8c0-0.2-0.2-0.4-0.4-0.4s-0.7,0.2-0.7,0.2c-2.4,1.8-4.9,4-6.7,6c0.2,0.4,0.7,0.4,0.9,0.4
		C-263.2,663.2-258.6,657.9-258.6,656.8z"/>
	<path d="M-264.1,686h-4.9c-1.3,0-2,0-2.2,0.4c-0.4,0.4-0.7,1.3-0.7,8.7c0,7.4,0.2,8.4,0.7,8.7c0.2,0.2,0.7,0.4,2.2,0.4h4.9
		c1.3,0,2,0,2.2-0.4c0.4-0.4,0.7-1.3,0.7-8.7s-0.2-8.4-0.7-8.7C-262.4,686.3-262.8,686-264.1,686z"/>
	<path d="M-263.9,724.7h-7.5v6.7h7.5c1.3,0,2,0,2.2-0.4c0.4-0.4,0.4-1.1,0.4-2.9c0-1.8,0-2.4-0.4-2.9
		C-261.9,724.9-262.4,724.7-263.9,724.7z"/>
	<path d="M-226.9,724.9h-8v18.6h7.8c2.2,0,2.9-0.2,3.6-0.7c0.4-0.4,0.7-2,0.7-8.7c0-6.7-0.2-8.2-0.7-8.7
		C-223.7,724.9-224.6,724.9-226.9,724.9z"/>
	<path d="M-177.4,662.5l-99-55.9c-2.7-1.6-7.1-1.6-9.8,0l-99,55.9c-2.5,1.6-4.8,5.6-4.8,8.7v81.7c0,3.1,2.4,6.4,5.5,7.3l97.9,35.7
		c3.1,0.9,8,0.9,11.1,0l97.9-35.7c3.1-0.9,5.5-4.2,5.5-7.3v-81.7C-172.3,667.8-174.5,664.1-177.4,662.5z M-309.2,641.7
		c3.8-1.6,9.5-0.9,16.6-0.9c17.1,0,33.5-1.1,34.4-1.1c0.4,0,0.7-0.4,3.8,2.2c0.4,0.4,1.8,1.1,1.8,1.8c0,0.4-1.6,0.7-2.4,0.9
		c-2.7,0.2-6,0.7-9.3,0.9c-2.4,0.7-4.4,2.2-6,3.8c-4.9,4.7-8.4,7.1-9.3,8.4c2.4-1.1,3.8-2,5.5-2c1.1,0,3.3,1.1,3.3,2.7
		c0,0.4-0.2,0.7-0.7,1.1c-1.8,1.6-7.3,5.8-7.3,7.8c0,0.4,0.2,0.4,0.4,0.4c0.7,0,2.9-1.6,5.1-3.1c1.3-0.9,2.4-2.7,2.9-3.3
		c1.1-1.6,2.4-3.1,4-4.4c2.9-2.7,5.1-3.8,6.4-3.8c0.7,0,1.8,0.7,2.7,1.8c1.3,1.1,1.3,1.8,1.3,2.2c0,3.6-6,8.4-8.7,8.4
		c-0.7,0-1.8-0.4-2.7-1.3c-0.7,1.1-1.1,2-1.1,2.7c0,0.7,0.2,1.3,1.3,1.3c0.7,0,1.6-0.2,2-0.4c6.7-2.4,10.2-5.8,10.4-5.8
		s0.2,0.2,0.2,0.4c0,0.4-1.6,2-2.9,3.3c-2.7,2.4-6.2,5.1-9.8,5.1c-1.6,0-4.9-3.6-5.1-5.1c-2.2,2-6,4.7-7.5,4.7c-2,0-3.1-2.7-3.1-4.4
		c0-2.2,2.9-5.1,5.3-7.5c-2.9,1.1-6,4-11.1,10.2c-0.2,0.2-0.9,1.8-1.3,1.8c-0.7,0-3.1-2-3.1-3.3c0-0.2,0-0.4,0.2-0.9
		c4.4-6.7,14-15.3,20-20.6c-1.6,0-2.9,0-3.8,0c-1.1,0-4.4,2.7-6.9,5.1c-2.9,2.9-10.2,10-15.1,16.2c-2.9,3.8-2.4,4.9-3.1,4.9
		c-1.6,0-4-4.4-4-5.1c0-2.2,6.7-8.7,10-11.8c5.5-5.3,8.9-8.2,9.5-8.7c0.2-0.2,0.9-0.7,0.9-0.7c-7.8-1.3-16-3.8-20.9-2.4
		c-6.2,1.8-9.3,15.1-0.4,11.8c3.8-1.3,7.3-4.2,9.3-6.9c0.9-0.9,1.3-0.4,0.4,0.9c-2.9,4.4-7.1,8.4-15.3,8.9
		C-320.2,658.1-318.7,645.7-309.2,641.7z M-251,695.1c0,9.3-1.1,13.1-3.1,14.9c-1.3,1.3-2.7,1.8-6.2,1.8h-12.4
		c-3.6,0-4.9-0.4-6.2-1.8c-2-2-3.1-5.8-3.1-14.9c0-9.3,1.1-13.1,3.1-14.9c1.3-1.3,2.7-1.8,6.2-1.8h12.4c3.6,0,4.9,0.4,6.2,1.8
		C-252.1,682.3-251,686-251,695.1z M-320.1,704.5h3.6v-18.7h-3.6v-7.5h26c2.9,0,4.7,0.4,6,1.8c1.6,1.6,2,3.3,2,7.5
		c0,6-1.6,7.3-5.5,8.2l5.1,8.7h3.1v7.5h-10.5l-7.3-12.6h-5.5v5.1h3.6v7.5h-17L-320.1,704.5L-320.1,704.5z M-351.6,704.5h9.1v-18.7
		h-9.1v-7.5h29.1v7.5h-9.1v18.6h9.1v7.5h-29.1V704.5z M-325.2,750.9h-17.3v-7.5h3.8v-5.1l-9.8-13.3h-3.3v-7.5h17.3v7.3h-2.9l3.8,5.8
		h0.2l4-5.8h-2.9v-7.3h16.6v7.5h-3.3l-10,13.1v5.3h3.8C-325.2,743.4-325.2,750.9-325.2,750.9z M-215.8,748.2c-2,2-4.7,2.7-9.3,2.7
		H-244h-4h-10.4l-7.3-12.6h-5.5v5.1h3.6v7.5H-283h-1.3h-15.2v-7.3h3.1l-0.9-2.9h-10.9l-0.7,2.9h3.1v7.3h-16.6v-7.5h3.8l8.9-26.2
		h15.1l8.9,26.2h1.3h1.3h2.2v-18.6h-3.6v-7.5h26c2.9,0,4.7,0.4,6,1.8c1.6,1.6,2,3.3,2,7.5c0,6-1.6,7.3-5.5,8.2l5.1,8.7h3.3h3.6
		v-18.6h-3.6v-7.5h22.9c4.9,0,7.3,0.7,9.3,2.7c2.2,2.2,3.6,5.8,3.6,14.2C-212.2,742.4-213.5,746-215.8,748.2z M-210.6,685.8h-3.6v26
		h-11.1l-11.8-19.1v11.5h3.6v7.5h-16v-7.5h3.6v-18.6h-3.6v-7.5h15.3l11.1,17.1v-9.8h-3.3v-7.5h15.5L-210.6,685.8L-210.6,685.8z"/>
</g>
</svg>
